<svg xmlns="http://www.w3.org/2000/svg" viewBox="15 10 80 80" width="140" height="140" role="img" aria-label="Mask2PolyMin logo: an L-shaped contour fitted with colored line segments and pixel dots">
  <title>Mask2PolyMin</title>
  <g fill="none" stroke-linecap="round">
    <line x1="30" y1="20" x2="70" y2="20" stroke="#6a00a8" stroke-width="5"/>
    <line x1="70" y1="20" x2="70" y2="30" stroke="#3f5fef" stroke-width="5"/>
    <line x1="70" y1="30" x2="80" y2="30" stroke="#17c9e8" stroke-width="5"/>
    <line x1="80" y1="30" x2="80" y2="50" stroke="#5cf0b0" stroke-width="5"/>
    <line x1="80" y1="50" x2="70" y2="50" stroke="#a8e05a" stroke-width="5"/>
    <line x1="70" y1="50" x2="70" y2="80" stroke="#e0c23c" stroke-width="5"/>
    <line x1="70" y1="80" x2="30" y2="80" stroke="#f2803c" stroke-width="5"/>
    <line x1="30" y1="80" x2="30" y2="20" stroke="#e0241f" stroke-width="5"/>
  </g>
  <g stroke="none">
    <circle cx="30" cy="20" r="3" fill="#6a00a8"/>
    <circle cx="40" cy="20" r="3" fill="#6a00a8"/>
    <circle cx="50" cy="20" r="3" fill="#6a00a8"/>
    <circle cx="60" cy="20" r="3" fill="#6a00a8"/>
    <circle cx="70" cy="20" r="3" fill="#3f5fef"/>
    <circle cx="70" cy="30" r="3" fill="#17c9e8"/>
    <circle cx="80" cy="30" r="3" fill="#5cf0b0"/>
    <circle cx="80" cy="40" r="3" fill="#5cf0b0"/>
    <circle cx="80" cy="50" r="3" fill="#a8e05a"/>
    <circle cx="70" cy="50" r="3" fill="#e0c23c"/>
    <circle cx="70" cy="60" r="3" fill="#e0c23c"/>
    <circle cx="70" cy="70" r="3" fill="#e0c23c"/>
    <circle cx="70" cy="80" r="3" fill="#f2803c"/>
    <circle cx="60" cy="80" r="3" fill="#f2803c"/>
    <circle cx="50" cy="80" r="3" fill="#f2803c"/>
    <circle cx="40" cy="80" r="3" fill="#f2803c"/>
    <circle cx="30" cy="80" r="3" fill="#e0241f"/>
    <circle cx="30" cy="70" r="3" fill="#e0241f"/>
    <circle cx="30" cy="60" r="3" fill="#e0241f"/>
    <circle cx="30" cy="50" r="3" fill="#e0241f"/>
    <circle cx="30" cy="40" r="3" fill="#e0241f"/>
    <circle cx="30" cy="30" r="3" fill="#e0241f"/>
  </g>
</svg>
